<?xml version="1.0" encoding="utf-8" standalone="no"?>
<!DOCTYPE svg PUBLIC "-//W3C//DTD SVG 1.1//EN"
  "http://www.w3.org/Graphics/SVG/1.1/DTD/svg11.dtd">
<svg xmlns:xlink="http://www.w3.org/1999/xlink" width="590.4pt" height="734.4pt" viewBox="0 0 590.4 734.4" xmlns="http://www.w3.org/2000/svg" version="1.1">
 <metadata>
  <rdf:RDF xmlns:dc="http://purl.org/dc/elements/1.1/" xmlns:cc="http://creativecommons.org/ns#" xmlns:rdf="http://www.w3.org/1999/02/22-rdf-syntax-ns#">
   <cc:Work>
    <dc:type rdf:resource="http://purl.org/dc/dcmitype/StillImage"/>
    <dc:date>2024-12-06T12:25:06.682141</dc:date>
    <dc:format>image/svg+xml</dc:format>
    <dc:creator>
     <cc:Agent>
      <dc:title>Matplotlib v3.7.2, https://matplotlib.org/</dc:title>
     </cc:Agent>
    </dc:creator>
   </cc:Work>
  </rdf:RDF>
 </metadata>
 <defs>
  <style type="text/css">*{stroke-linejoin: round; stroke-linecap: butt}</style>
 </defs>
 <g id="figure_1">
  <g id="patch_1">
   <path d="M 0 734.4 
L 590.4 734.4 
L 590.4 0 
L 0 0 
z
" style="fill: #ffffff"/>
  </g>
  <g id="axes_1">
   <g id="patch_2">
    <path d="M 149.815885 199.65214 
Q 159.549543 248.192354 169.06338 295.636357 
" clip-path="url(#p83de77055c)" style="fill: none; stroke: #000000; stroke-linecap: round"/>
    <path d="M 170.237888 291.321206 
L 169.06338 295.636357 
L 166.315963 292.10766 
z
" clip-path="url(#p83de77055c)" style="stroke: #000000; stroke-linecap: round"/>
   </g>
   <g id="patch_3">
    <path d="M 64.928805 196.752113 
Q 114.334035 248.193273 162.964814 298.828068 
" clip-path="url(#p83de77055c)" style="fill: none; stroke: #000000; stroke-linecap: round"/>
    <path d="M 161.636524 294.557747 
L 162.964814 298.828068 
L 158.751583 297.328508 
z
" clip-path="url(#p83de77055c)" style="stroke: #000000; stroke-linecap: round"/>
   </g>
   <g id="patch_4">
    <path d="M 232.592184 198.446368 
Q 204.766263 248.191765 177.486146 296.961407 
" clip-path="url(#p83de77055c)" style="fill: none; stroke: #000000; stroke-linecap: round"/>
    <path d="M 181.18436 294.446806 
L 177.486146 296.961407 
L 177.693394 292.494076 
z
" clip-path="url(#p83de77055c)" style="stroke: #000000; stroke-linecap: round"/>
   </g>
   <g id="patch_5">
    <path d="M 240.249606 199.65214 
Q 249.983264 248.192354 259.497101 295.636357 
" clip-path="url(#p83de77055c)" style="fill: none; stroke: #000000; stroke-linecap: round"/>
    <path d="M 260.671608 291.321206 
L 259.497101 295.636357 
L 256.749684 292.10766 
z
" clip-path="url(#p83de77055c)" style="stroke: #000000; stroke-linecap: round"/>
   </g>
   <g id="patch_6">
    <path d="M 323.025905 198.446368 
Q 295.199984 248.191765 267.919867 296.961407 
" clip-path="url(#p83de77055c)" style="fill: none; stroke: #000000; stroke-linecap: round"/>
    <path d="M 271.618081 294.446806 
L 267.919867 296.961407 
L 268.127115 292.494076 
z
" clip-path="url(#p83de77055c)" style="stroke: #000000; stroke-linecap: round"/>
   </g>
   <g id="patch_7">
    <path d="M 330.683327 199.65214 
Q 340.416984 248.192354 349.930821 295.636357 
" clip-path="url(#p83de77055c)" style="fill: none; stroke: #000000; stroke-linecap: round"/>
    <path d="M 351.105329 291.321206 
L 349.930821 295.636357 
L 347.183405 292.10766 
z
" clip-path="url(#p83de77055c)" style="stroke: #000000; stroke-linecap: round"/>
   </g>
   <g id="patch_8">
    <path d="M 418.313436 80.418702 
Q 386.889883 188.687126 355.777965 295.881827 
" clip-path="url(#p83de77055c)" style="fill: none; stroke: #000000; stroke-linecap: round"/>
    <path d="M 358.81364 292.597824 
L 355.777965 295.881827 
L 354.972168 291.482885 
z
" clip-path="url(#p83de77055c)" style="stroke: #000000; stroke-linecap: round"/>
   </g>
   <g id="patch_9">
    <path d="M 425.4004 80.128154 
Q 444.038146 129.181666 462.278795 177.19004 
" clip-path="url(#p83de77055c)" style="fill: none; stroke: #000000; stroke-linecap: round"/>
    <path d="M 462.727696 172.740491 
L 462.278795 177.19004 
L 458.988496 174.16119 
z
" clip-path="url(#p83de77055c)" style="stroke: #000000; stroke-linecap: round"/>
   </g>
   <g id="patch_10">
    <path d="M 518.371429 79.779497 
Q 494.907871 129.183322 471.923958 177.577227 
" clip-path="url(#p83de77055c)" style="fill: none; stroke: #000000; stroke-linecap: round"/>
    <path d="M 475.446592 174.822041 
L 471.923958 177.577227 
L 471.83339 173.106008 
z
" clip-path="url(#p83de77055c)" style="stroke: #000000; stroke-linecap: round"/>
   </g>
   <g id="patch_11">
    <path d="M 523.345369 80.861787 
Q 525.052423 188.690698 526.741779 295.401716 
" clip-path="url(#p83de77055c)" style="fill: none; stroke: #000000; stroke-linecap: round"/>
    <path d="M 528.678212 291.370559 
L 526.741779 295.401716 
L 524.678713 291.433875 
z
" clip-path="url(#p83de77055c)" style="stroke: #000000; stroke-linecap: round"/>
   </g>
   <g id="patch_12">
    <path d="M 171.481646 318.878315 
Q 171.481646 367.202169 171.481646 414.407989 
" clip-path="url(#p83de77055c)" style="fill: none; stroke: #000000; stroke-linecap: round"/>
    <path d="M 173.481646 410.407989 
L 171.481646 414.407989 
L 169.481646 410.407989 
z
" clip-path="url(#p83de77055c)" style="stroke: #000000; stroke-linecap: round"/>
   </g>
   <g id="patch_13">
    <path d="M 255.151052 316.597517 
Q 216.698311 367.200257 178.922014 416.912815 
" clip-path="url(#p83de77055c)" style="fill: none; stroke: #000000; stroke-linecap: round"/>
    <path d="M 182.934539 414.938064 
L 178.922014 416.912815 
L 179.749729 412.517944 
z
" clip-path="url(#p83de77055c)" style="stroke: #000000; stroke-linecap: round"/>
   </g>
   <g id="patch_14">
    <path d="M 261.915367 318.878315 
Q 261.915367 367.202169 261.915367 414.407989 
" clip-path="url(#p83de77055c)" style="fill: none; stroke: #000000; stroke-linecap: round"/>
    <path d="M 263.915367 410.407989 
L 261.915367 414.407989 
L 259.915367 410.407989 
z
" clip-path="url(#p83de77055c)" style="stroke: #000000; stroke-linecap: round"/>
   </g>
   <g id="patch_15">
    <path d="M 345.584773 316.597517 
Q 307.132032 367.200257 269.355735 416.912815 
" clip-path="url(#p83de77055c)" style="fill: none; stroke: #000000; stroke-linecap: round"/>
    <path d="M 273.36826 414.938064 
L 269.355735 416.912815 
L 270.183449 412.517944 
z
" clip-path="url(#p83de77055c)" style="stroke: #000000; stroke-linecap: round"/>
   </g>
   <g id="patch_16">
    <path d="M 352.349087 318.878315 
Q 352.349087 367.202169 352.349087 414.407989 
" clip-path="url(#p83de77055c)" style="fill: none; stroke: #000000; stroke-linecap: round"/>
    <path d="M 354.349087 410.407989 
L 352.349087 414.407989 
L 350.349087 410.407989 
z
" clip-path="url(#p83de77055c)" style="stroke: #000000; stroke-linecap: round"/>
   </g>
   <g id="patch_17">
    <path d="M 471.701409 198.664279 
Q 496.79298 248.193994 521.379295 296.726355 
" clip-path="url(#p83de77055c)" style="fill: none; stroke: #000000; stroke-linecap: round"/>
    <path d="M 521.355758 292.254281 
L 521.379295 296.726355 
L 517.787513 294.061941 
z
" clip-path="url(#p83de77055c)" style="stroke: #000000; stroke-linecap: round"/>
   </g>
   <g id="patch_18">
    <path d="M 465.531893 199.811942 
Q 454.715005 307.696173 444.009655 414.467948 
" clip-path="url(#p83de77055c)" style="fill: none; stroke: #000000; stroke-linecap: round"/>
    <path d="M 446.398732 410.687431 
L 444.009655 414.467948 
L 442.418687 410.288376 
z
" clip-path="url(#p83de77055c)" style="stroke: #000000; stroke-linecap: round"/>
   </g>
   <g id="patch_19">
    <path d="M 520.482613 316.822692 
Q 484.861113 367.197873 449.88512 416.660191 
" clip-path="url(#p83de77055c)" style="fill: none; stroke: #000000; stroke-linecap: round"/>
    <path d="M 453.827539 414.54895 
L 449.88512 416.660191 
L 450.561579 412.239512 
z
" clip-path="url(#p83de77055c)" style="stroke: #000000; stroke-linecap: round"/>
   </g>
   <g id="patch_20">
    <path d="M 527.525746 318.863788 
Q 530.076508 367.200734 532.568353 414.4212 
" clip-path="url(#p83de77055c)" style="fill: none; stroke: #000000; stroke-linecap: round"/>
    <path d="M 534.354786 410.321364 
L 532.568353 414.4212 
L 530.360343 410.532152 
z
" clip-path="url(#p83de77055c)" style="stroke: #000000; stroke-linecap: round"/>
   </g>
   <g id="patch_21">
    <path d="M 178.24596 435.605782 
Q 216.698701 486.208521 254.474999 535.921079 
" clip-path="url(#p83de77055c)" style="fill: none; stroke: #000000; stroke-linecap: round"/>
    <path d="M 253.647284 531.526208 
L 254.474999 535.921079 
L 250.462473 533.946328 
z
" clip-path="url(#p83de77055c)" style="stroke: #000000; stroke-linecap: round"/>
   </g>
   <g id="patch_22">
    <path d="M 261.915367 437.88658 
Q 261.915367 486.210433 261.915367 533.416253 
" clip-path="url(#p83de77055c)" style="fill: none; stroke: #000000; stroke-linecap: round"/>
    <path d="M 263.915367 529.416253 
L 261.915367 533.416253 
L 259.915367 529.416253 
z
" clip-path="url(#p83de77055c)" style="stroke: #000000; stroke-linecap: round"/>
   </g>
   <g id="patch_23">
    <path d="M 268.679681 435.605782 
Q 307.132422 486.208521 344.908719 535.921079 
" clip-path="url(#p83de77055c)" style="fill: none; stroke: #000000; stroke-linecap: round"/>
    <path d="M 344.081005 531.526208 
L 344.908719 535.921079 
L 340.896194 533.946328 
z
" clip-path="url(#p83de77055c)" style="stroke: #000000; stroke-linecap: round"/>
   </g>
   <g id="patch_24">
    <path d="M 352.349087 437.88658 
Q 352.349087 486.210433 352.349087 533.416253 
" clip-path="url(#p83de77055c)" style="fill: none; stroke: #000000; stroke-linecap: round"/>
    <path d="M 354.349087 529.416253 
L 352.349087 533.416253 
L 350.349087 529.416253 
z
" clip-path="url(#p83de77055c)" style="stroke: #000000; stroke-linecap: round"/>
   </g>
   <g id="patch_25">
    <path d="M 359.113402 435.605782 
Q 397.566143 486.208521 435.34244 535.921079 
" clip-path="url(#p83de77055c)" style="fill: none; stroke: #000000; stroke-linecap: round"/>
    <path d="M 434.514726 531.526208 
L 435.34244 535.921079 
L 431.329915 533.946328 
z
" clip-path="url(#p83de77055c)" style="stroke: #000000; stroke-linecap: round"/>
   </g>
   <g id="patch_26">
    <path d="M 442.782808 437.88658 
Q 442.782808 486.210433 442.782808 533.416253 
" clip-path="url(#p83de77055c)" style="fill: none; stroke: #000000; stroke-linecap: round"/>
    <path d="M 444.782808 529.416253 
L 442.782808 533.416253 
L 440.782808 529.416253 
z
" clip-path="url(#p83de77055c)" style="stroke: #000000; stroke-linecap: round"/>
   </g>
   <g id="patch_27">
    <path d="M 526.452215 435.605782 
Q 487.999473 486.208521 450.223176 535.921079 
" clip-path="url(#p83de77055c)" style="fill: none; stroke: #000000; stroke-linecap: round"/>
    <path d="M 454.235702 533.946328 
L 450.223176 535.921079 
L 451.050891 531.526208 
z
" clip-path="url(#p83de77055c)" style="stroke: #000000; stroke-linecap: round"/>
   </g>
   <g id="patch_28">
    <path d="M 268.679681 554.614046 
Q 307.132422 605.216786 344.908719 654.929344 
" clip-path="url(#p83de77055c)" style="fill: none; stroke: #000000; stroke-linecap: round"/>
    <path d="M 344.081005 650.534473 
L 344.908719 654.929344 
L 340.896194 652.954593 
z
" clip-path="url(#p83de77055c)" style="stroke: #000000; stroke-linecap: round"/>
   </g>
   <g id="patch_29">
    <path d="M 352.349087 556.894844 
Q 352.349087 605.218698 352.349087 652.424517 
" clip-path="url(#p83de77055c)" style="fill: none; stroke: #000000; stroke-linecap: round"/>
    <path d="M 354.349087 648.424517 
L 352.349087 652.424517 
L 350.349087 648.424517 
z
" clip-path="url(#p83de77055c)" style="stroke: #000000; stroke-linecap: round"/>
   </g>
   <g id="patch_30">
    <path d="M 436.018494 554.614046 
Q 397.565753 605.216786 359.789455 654.929344 
" clip-path="url(#p83de77055c)" style="fill: none; stroke: #000000; stroke-linecap: round"/>
    <path d="M 363.801981 652.954593 
L 359.789455 654.929344 
L 360.61717 650.534473 
z
" clip-path="url(#p83de77055c)" style="stroke: #000000; stroke-linecap: round"/>
   </g>
   <g id="patch_31">
    <path d="M 149.319195 197.175223 
Q 159.549241 248.190848 169.559467 298.110263 
" clip-path="url(#p83de77055c)" style="fill: none; stroke: #000000; stroke-linecap: round"/>
    <path d="M 171.321228 291.637535 
L 169.559467 298.110263 
L 165.438342 292.817217 
z
" clip-path="url(#p83de77055c)" style="stroke: #000000; stroke-linecap: round"/>
   </g>
   <g id="patch_32">
    <path d="M 63.181265 194.932559 
Q 114.332109 248.191267 164.708501 300.64361 
" clip-path="url(#p83de77055c)" style="fill: none; stroke: #000000; stroke-linecap: round"/>
    <path d="M 162.716065 294.238128 
L 164.708501 300.64361 
L 158.388654 298.394269 
z
" clip-path="url(#p83de77055c)" style="stroke: #000000; stroke-linecap: round"/>
   </g>
   <g id="patch_33">
    <path d="M 233.823293 196.245471 
Q 204.767116 248.19024 176.256744 299.159254 
" clip-path="url(#p83de77055c)" style="fill: none; stroke: #000000; stroke-linecap: round"/>
    <path d="M 181.804064 295.387353 
L 176.256744 299.159254 
L 176.567615 292.458257 
z
" clip-path="url(#p83de77055c)" style="stroke: #000000; stroke-linecap: round"/>
   </g>
   <g id="patch_34">
    <path d="M 239.752915 197.175223 
Q 249.982962 248.190848 259.993187 298.110263 
" clip-path="url(#p83de77055c)" style="fill: none; stroke: #000000; stroke-linecap: round"/>
    <path d="M 261.754949 291.637535 
L 259.993187 298.110263 
L 255.872062 292.817217 
z
" clip-path="url(#p83de77055c)" style="stroke: #000000; stroke-linecap: round"/>
   </g>
   <g id="patch_35">
    <path d="M 324.257014 196.245471 
Q 295.200837 248.19024 266.690465 299.159254 
" clip-path="url(#p83de77055c)" style="fill: none; stroke: #000000; stroke-linecap: round"/>
    <path d="M 272.237785 295.387353 
L 266.690465 299.159254 
L 267.001336 292.458257 
z
" clip-path="url(#p83de77055c)" style="stroke: #000000; stroke-linecap: round"/>
   </g>
   <g id="patch_36">
    <path d="M 330.186636 197.175223 
Q 340.416682 248.190848 350.426908 298.110263 
" clip-path="url(#p83de77055c)" style="fill: none; stroke: #000000; stroke-linecap: round"/>
    <path d="M 352.188669 291.637535 
L 350.426908 298.110263 
L 346.305783 292.817217 
z
" clip-path="url(#p83de77055c)" style="stroke: #000000; stroke-linecap: round"/>
   </g>
   <g id="patch_37">
    <path d="M 419.015465 77.999893 
Q 386.889241 188.689338 355.074652 298.305058 
" clip-path="url(#p83de77055c)" style="fill: none; stroke: #000000; stroke-linecap: round"/>
    <path d="M 359.628166 293.379053 
L 355.074652 298.305058 
L 353.865957 291.706645 
z
" clip-path="url(#p83de77055c)" style="stroke: #000000; stroke-linecap: round"/>
   </g>
   <g id="patch_38">
    <path d="M 424.506219 77.774719 
Q 444.039277 129.184642 463.175237 179.549426 
" clip-path="url(#p83de77055c)" style="fill: none; stroke: #000000; stroke-linecap: round"/>
    <path d="M 463.848589 172.875102 
L 463.175237 179.549426 
L 458.239789 175.00615 
z
" clip-path="url(#p83de77055c)" style="stroke: #000000; stroke-linecap: round"/>
   </g>
   <g id="patch_39">
    <path d="M 519.454657 77.498699 
Q 494.908276 129.18247 470.84154 179.856319 
" clip-path="url(#p83de77055c)" style="fill: none; stroke: #000000; stroke-linecap: round"/>
    <path d="M 476.125491 175.723541 
L 470.84154 179.856319 
L 470.705687 173.149491 
z
" clip-path="url(#p83de77055c)" style="stroke: #000000; stroke-linecap: round"/>
   </g>
   <g id="patch_40">
    <path d="M 523.305466 78.341287 
Q 525.052376 188.687732 526.781588 297.916283 
" clip-path="url(#p83de77055c)" style="fill: none; stroke: #000000; stroke-linecap: round"/>
    <path d="M 529.686237 291.869547 
L 526.781588 297.916283 
L 523.686988 291.964522 
z
" clip-path="url(#p83de77055c)" style="stroke: #000000; stroke-linecap: round"/>
   </g>
   <g id="patch_41">
    <path d="M 171.481646 316.357816 
Q 171.481646 367.20205 171.481646 416.92825 
" clip-path="url(#p83de77055c)" style="fill: none; stroke: #000000; stroke-linecap: round"/>
    <path d="M 174.481646 410.92825 
L 171.481646 416.92825 
L 168.481646 410.92825 
z
" clip-path="url(#p83de77055c)" style="stroke: #000000; stroke-linecap: round"/>
   </g>
   <g id="patch_42">
    <path d="M 256.674472 314.59274 
Q 216.697437 367.201407 177.396846 418.919894 
" clip-path="url(#p83de77055c)" style="fill: none; stroke: #000000; stroke-linecap: round"/>
    <path d="M 183.415634 415.957768 
L 177.396846 418.919894 
L 178.638418 412.327588 
z
" clip-path="url(#p83de77055c)" style="stroke: #000000; stroke-linecap: round"/>
   </g>
   <g id="patch_43">
    <path d="M 261.915367 316.357816 
Q 261.915367 367.20205 261.915367 416.92825 
" clip-path="url(#p83de77055c)" style="fill: none; stroke: #000000; stroke-linecap: round"/>
    <path d="M 264.915367 410.92825 
L 261.915367 416.92825 
L 258.915367 410.92825 
z
" clip-path="url(#p83de77055c)" style="stroke: #000000; stroke-linecap: round"/>
   </g>
   <g id="patch_44">
    <path d="M 347.108193 314.59274 
Q 307.131158 367.201407 267.830566 418.919894 
" clip-path="url(#p83de77055c)" style="fill: none; stroke: #000000; stroke-linecap: round"/>
    <path d="M 273.849354 415.957768 
L 267.830566 418.919894 
L 269.072138 412.327588 
z
" clip-path="url(#p83de77055c)" style="stroke: #000000; stroke-linecap: round"/>
   </g>
   <g id="patch_45">
    <path d="M 352.349087 316.357816 
Q 352.349087 367.20205 352.349087 416.92825 
" clip-path="url(#p83de77055c)" style="fill: none; stroke: #000000; stroke-linecap: round"/>
    <path d="M 355.349087 410.92825 
L 352.349087 416.92825 
L 349.349087 410.92825 
z
" clip-path="url(#p83de77055c)" style="stroke: #000000; stroke-linecap: round"/>
   </g>
   <g id="patch_46">
    <path d="M 470.560684 196.412536 
Q 496.791534 248.19114 522.517128 298.972391 
" clip-path="url(#p83de77055c)" style="fill: none; stroke: #000000; stroke-linecap: round"/>
    <path d="M 522.481822 292.26428 
L 522.517128 298.972391 
L 517.129456 294.975769 
z
" clip-path="url(#p83de77055c)" style="stroke: #000000; stroke-linecap: round"/>
   </g>
   <g id="patch_47">
    <path d="M 465.783152 197.305969 
Q 454.714833 307.697885 443.758053 416.977344 
" clip-path="url(#p83de77055c)" style="fill: none; stroke: #000000; stroke-linecap: round"/>
    <path d="M 447.341669 411.306568 
L 443.758053 416.977344 
L 441.371602 410.707986 
z
" clip-path="url(#p83de77055c)" style="stroke: #000000; stroke-linecap: round"/>
   </g>
   <g id="patch_48">
    <path d="M 521.936194 314.767068 
Q 484.858408 367.201698 448.426129 418.723465 
" clip-path="url(#p83de77055c)" style="fill: none; stroke: #000000; stroke-linecap: round"/>
    <path d="M 454.339757 415.556604 
L 448.426129 418.723465 
L 449.440817 412.092447 
z
" clip-path="url(#p83de77055c)" style="stroke: #000000; stroke-linecap: round"/>
   </g>
   <g id="patch_49">
    <path d="M 527.392738 316.343288 
Q 530.076519 367.200952 532.701384 416.942135 
" clip-path="url(#p83de77055c)" style="fill: none; stroke: #000000; stroke-linecap: round"/>
    <path d="M 535.381033 410.792381 
L 532.701384 416.942135 
L 529.38937 411.108563 
z
" clip-path="url(#p83de77055c)" style="stroke: #000000; stroke-linecap: round"/>
   </g>
   <g id="patch_50">
    <path d="M 176.722541 433.601004 
Q 216.699576 486.209672 256.000167 537.928158 
" clip-path="url(#p83de77055c)" style="fill: none; stroke: #000000; stroke-linecap: round"/>
    <path d="M 254.758595 531.335852 
L 256.000167 537.928158 
L 249.981379 534.966032 
z
" clip-path="url(#p83de77055c)" style="stroke: #000000; stroke-linecap: round"/>
   </g>
   <g id="patch_51">
    <path d="M 261.915367 435.36608 
Q 261.915367 486.210314 261.915367 535.936514 
" clip-path="url(#p83de77055c)" style="fill: none; stroke: #000000; stroke-linecap: round"/>
    <path d="M 264.915367 529.936514 
L 261.915367 535.936514 
L 258.915367 529.936514 
z
" clip-path="url(#p83de77055c)" style="stroke: #000000; stroke-linecap: round"/>
   </g>
   <g id="patch_52">
    <path d="M 267.156261 433.601004 
Q 307.133297 486.209672 346.433888 537.928158 
" clip-path="url(#p83de77055c)" style="fill: none; stroke: #000000; stroke-linecap: round"/>
    <path d="M 345.192316 531.335852 
L 346.433888 537.928158 
L 340.4151 534.966032 
z
" clip-path="url(#p83de77055c)" style="stroke: #000000; stroke-linecap: round"/>
   </g>
   <g id="patch_53">
    <path d="M 352.349087 435.36608 
Q 352.349087 486.210314 352.349087 535.936514 
" clip-path="url(#p83de77055c)" style="fill: none; stroke: #000000; stroke-linecap: round"/>
    <path d="M 355.349087 529.936514 
L 352.349087 535.936514 
L 349.349087 529.936514 
z
" clip-path="url(#p83de77055c)" style="stroke: #000000; stroke-linecap: round"/>
   </g>
   <g id="patch_54">
    <path d="M 357.589982 433.601004 
Q 397.567017 486.209672 436.867608 537.928158 
" clip-path="url(#p83de77055c)" style="fill: none; stroke: #000000; stroke-linecap: round"/>
    <path d="M 435.626036 531.335852 
L 436.867608 537.928158 
L 430.84882 534.966032 
z
" clip-path="url(#p83de77055c)" style="stroke: #000000; stroke-linecap: round"/>
   </g>
   <g id="patch_55">
    <path d="M 442.782808 435.36608 
Q 442.782808 486.210314 442.782808 535.936514 
" clip-path="url(#p83de77055c)" style="fill: none; stroke: #000000; stroke-linecap: round"/>
    <path d="M 445.782808 529.936514 
L 442.782808 535.936514 
L 439.782808 529.936514 
z
" clip-path="url(#p83de77055c)" style="stroke: #000000; stroke-linecap: round"/>
   </g>
   <g id="patch_56">
    <path d="M 527.975634 433.601004 
Q 487.998599 486.209672 448.698008 537.928158 
" clip-path="url(#p83de77055c)" style="fill: none; stroke: #000000; stroke-linecap: round"/>
    <path d="M 454.716796 534.966032 
L 448.698008 537.928158 
L 449.93958 531.335852 
z
" clip-path="url(#p83de77055c)" style="stroke: #000000; stroke-linecap: round"/>
   </g>
   <g id="patch_57">
    <path d="M 267.156261 552.609268 
Q 307.133297 605.217936 346.433888 656.936423 
" clip-path="url(#p83de77055c)" style="fill: none; stroke: #000000; stroke-linecap: round"/>
    <path d="M 345.192316 650.344117 
L 346.433888 656.936423 
L 340.4151 653.974297 
z
" clip-path="url(#p83de77055c)" style="stroke: #000000; stroke-linecap: round"/>
   </g>
   <g id="patch_58">
    <path d="M 352.349087 554.374345 
Q 352.349087 605.218579 352.349087 654.944779 
" clip-path="url(#p83de77055c)" style="fill: none; stroke: #000000; stroke-linecap: round"/>
    <path d="M 355.349087 648.944779 
L 352.349087 654.944779 
L 349.349087 648.944779 
z
" clip-path="url(#p83de77055c)" style="stroke: #000000; stroke-linecap: round"/>
   </g>
   <g id="patch_59">
    <path d="M 437.541914 552.609268 
Q 397.564878 605.217936 358.264287 656.936423 
" clip-path="url(#p83de77055c)" style="fill: none; stroke: #000000; stroke-linecap: round"/>
    <path d="M 364.283075 653.974297 
L 358.264287 656.936423 
L 359.505859 650.344117 
z
" clip-path="url(#p83de77055c)" style="stroke: #000000; stroke-linecap: round"/>
   </g>
   <g id="PathCollection_1">
    <defs>
     <path id="m2bcde4dfd7" d="M 0 11.18034 
C 2.965061 11.18034 5.80908 10.002309 7.905694 7.905694 
C 10.002309 5.80908 11.18034 2.965061 11.18034 0 
C 11.18034 -2.965061 10.002309 -5.80908 7.905694 -7.905694 
C 5.80908 -10.002309 2.965061 -11.18034 0 -11.18034 
C -2.965061 -11.18034 -5.80908 -10.002309 -7.905694 -7.905694 
C -10.002309 -5.80908 -11.18034 -2.965061 -11.18034 0 
C -11.18034 2.965061 -10.002309 5.80908 -7.905694 7.905694 
C -5.80908 10.002309 -2.965061 11.18034 0 11.18034 
z
" style="stroke: #add8e6"/>
    </defs>
    <g clip-path="url(#p83de77055c)">
     <use xlink:href="#m2bcde4dfd7" x="147.617192" y="188.687603" style="fill: #add8e6; stroke: #add8e6"/>
     <use xlink:href="#m2bcde4dfd7" x="57.183471" y="188.687603" style="fill: #add8e6; stroke: #add8e6"/>
     <use xlink:href="#m2bcde4dfd7" x="238.050913" y="188.687603" style="fill: #add8e6; stroke: #add8e6"/>
     <use xlink:href="#m2bcde4dfd7" x="328.484633" y="188.687603" style="fill: #add8e6; stroke: #add8e6"/>
     <use xlink:href="#m2bcde4dfd7" x="421.430402" y="69.679339" style="fill: #add8e6; stroke: #add8e6"/>
     <use xlink:href="#m2bcde4dfd7" x="523.168338" y="69.679339" style="fill: #add8e6; stroke: #add8e6"/>
     <use xlink:href="#m2bcde4dfd7" x="171.481646" y="307.695868" style="fill: #add8e6; stroke: #add8e6"/>
     <use xlink:href="#m2bcde4dfd7" x="261.915367" y="307.695868" style="fill: #add8e6; stroke: #add8e6"/>
     <use xlink:href="#m2bcde4dfd7" x="352.349087" y="307.695868" style="fill: #add8e6; stroke: #add8e6"/>
     <use xlink:href="#m2bcde4dfd7" x="466.647262" y="188.687603" style="fill: #add8e6; stroke: #add8e6"/>
     <use xlink:href="#m2bcde4dfd7" x="526.936409" y="307.695868" style="fill: #add8e6; stroke: #add8e6"/>
     <use xlink:href="#m2bcde4dfd7" x="171.481646" y="426.704132" style="fill: #add8e6; stroke: #add8e6"/>
     <use xlink:href="#m2bcde4dfd7" x="261.915367" y="426.704132" style="fill: #add8e6; stroke: #add8e6"/>
     <use xlink:href="#m2bcde4dfd7" x="352.349087" y="426.704132" style="fill: #add8e6; stroke: #add8e6"/>
     <use xlink:href="#m2bcde4dfd7" x="442.782808" y="426.704132" style="fill: #add8e6; stroke: #add8e6"/>
     <use xlink:href="#m2bcde4dfd7" x="533.216529" y="426.704132" style="fill: #add8e6; stroke: #add8e6"/>
     <use xlink:href="#m2bcde4dfd7" x="261.915367" y="545.712397" style="fill: #add8e6; stroke: #add8e6"/>
     <use xlink:href="#m2bcde4dfd7" x="352.349087" y="545.712397" style="fill: #add8e6; stroke: #add8e6"/>
     <use xlink:href="#m2bcde4dfd7" x="442.782808" y="545.712397" style="fill: #add8e6; stroke: #add8e6"/>
     <use xlink:href="#m2bcde4dfd7" x="352.349087" y="664.720661" style="fill: #add8e6; stroke: #add8e6"/>
    </g>
   </g>
   <g id="text_1">
    <g clip-path="url(#p83de77055c)">
     <!-- 1 -->
     <g transform="translate(142.209067 193.378541) scale(0.17 -0.17)">
      <defs>
       <path id="DejaVuSans-31" d="M 794 531 
L 1825 531 
L 1825 4091 
L 703 3866 
L 703 4441 
L 1819 4666 
L 2450 4666 
L 2450 531 
L 3481 531 
L 3481 0 
L 794 0 
L 794 531 
z
" transform="scale(0.015625)"/>
      </defs>
      <use xlink:href="#DejaVuSans-31"/>
     </g>
    </g>
   </g>
   <g id="text_2">
    <g clip-path="url(#p83de77055c)">
     <!-- 2 -->
     <g transform="translate(51.775346 193.378541) scale(0.17 -0.17)">
      <defs>
       <path id="DejaVuSans-32" d="M 1228 531 
L 3431 531 
L 3431 0 
L 469 0 
L 469 531 
Q 828 903 1448 1529 
Q 2069 2156 2228 2338 
Q 2531 2678 2651 2914 
Q 2772 3150 2772 3378 
Q 2772 3750 2511 3984 
Q 2250 4219 1831 4219 
Q 1534 4219 1204 4116 
Q 875 4013 500 3803 
L 500 4441 
Q 881 4594 1212 4672 
Q 1544 4750 1819 4750 
Q 2544 4750 2975 4387 
Q 3406 4025 3406 3419 
Q 3406 3131 3298 2873 
Q 3191 2616 2906 2266 
Q 2828 2175 2409 1742 
Q 1991 1309 1228 531 
z
" transform="scale(0.015625)"/>
      </defs>
      <use xlink:href="#DejaVuSans-32"/>
     </g>
    </g>
   </g>
   <g id="text_3">
    <g clip-path="url(#p83de77055c)">
     <!-- 3 -->
     <g transform="translate(232.642788 193.378541) scale(0.17 -0.17)">
      <defs>
       <path id="DejaVuSans-33" d="M 2597 2516 
Q 3050 2419 3304 2112 
Q 3559 1806 3559 1356 
Q 3559 666 3084 287 
Q 2609 -91 1734 -91 
Q 1441 -91 1130 -33 
Q 819 25 488 141 
L 488 750 
Q 750 597 1062 519 
Q 1375 441 1716 441 
Q 2309 441 2620 675 
Q 2931 909 2931 1356 
Q 2931 1769 2642 2001 
Q 2353 2234 1838 2234 
L 1294 2234 
L 1294 2753 
L 1863 2753 
Q 2328 2753 2575 2939 
Q 2822 3125 2822 3475 
Q 2822 3834 2567 4026 
Q 2313 4219 1838 4219 
Q 1578 4219 1281 4162 
Q 984 4106 628 3988 
L 628 4550 
Q 988 4650 1302 4700 
Q 1616 4750 1894 4750 
Q 2613 4750 3031 4423 
Q 3450 4097 3450 3541 
Q 3450 3153 3228 2886 
Q 3006 2619 2597 2516 
z
" transform="scale(0.015625)"/>
      </defs>
      <use xlink:href="#DejaVuSans-33"/>
     </g>
    </g>
   </g>
   <g id="text_4">
    <g clip-path="url(#p83de77055c)">
     <!-- 4 -->
     <g transform="translate(323.076508 193.378541) scale(0.17 -0.17)">
      <defs>
       <path id="DejaVuSans-34" d="M 2419 4116 
L 825 1625 
L 2419 1625 
L 2419 4116 
z
M 2253 4666 
L 3047 4666 
L 3047 1625 
L 3713 1625 
L 3713 1100 
L 3047 1100 
L 3047 0 
L 2419 0 
L 2419 1100 
L 313 1100 
L 313 1709 
L 2253 4666 
z
" transform="scale(0.015625)"/>
      </defs>
      <use xlink:href="#DejaVuSans-34"/>
     </g>
    </g>
   </g>
   <g id="text_5">
    <g clip-path="url(#p83de77055c)">
     <!-- 5 -->
     <g transform="translate(416.022277 74.370276) scale(0.17 -0.17)">
      <defs>
       <path id="DejaVuSans-35" d="M 691 4666 
L 3169 4666 
L 3169 4134 
L 1269 4134 
L 1269 2991 
Q 1406 3038 1543 3061 
Q 1681 3084 1819 3084 
Q 2600 3084 3056 2656 
Q 3513 2228 3513 1497 
Q 3513 744 3044 326 
Q 2575 -91 1722 -91 
Q 1428 -91 1123 -41 
Q 819 9 494 109 
L 494 744 
Q 775 591 1075 516 
Q 1375 441 1709 441 
Q 2250 441 2565 725 
Q 2881 1009 2881 1497 
Q 2881 1984 2565 2268 
Q 2250 2553 1709 2553 
Q 1456 2553 1204 2497 
Q 953 2441 691 2322 
L 691 4666 
z
" transform="scale(0.015625)"/>
      </defs>
      <use xlink:href="#DejaVuSans-35"/>
     </g>
    </g>
   </g>
   <g id="text_6">
    <g clip-path="url(#p83de77055c)">
     <!-- 6 -->
     <g transform="translate(517.760213 74.370276) scale(0.17 -0.17)">
      <defs>
       <path id="DejaVuSans-36" d="M 2113 2584 
Q 1688 2584 1439 2293 
Q 1191 2003 1191 1497 
Q 1191 994 1439 701 
Q 1688 409 2113 409 
Q 2538 409 2786 701 
Q 3034 994 3034 1497 
Q 3034 2003 2786 2293 
Q 2538 2584 2113 2584 
z
M 3366 4563 
L 3366 3988 
Q 3128 4100 2886 4159 
Q 2644 4219 2406 4219 
Q 1781 4219 1451 3797 
Q 1122 3375 1075 2522 
Q 1259 2794 1537 2939 
Q 1816 3084 2150 3084 
Q 2853 3084 3261 2657 
Q 3669 2231 3669 1497 
Q 3669 778 3244 343 
Q 2819 -91 2113 -91 
Q 1303 -91 875 529 
Q 447 1150 447 2328 
Q 447 3434 972 4092 
Q 1497 4750 2381 4750 
Q 2619 4750 2861 4703 
Q 3103 4656 3366 4563 
z
" transform="scale(0.015625)"/>
      </defs>
      <use xlink:href="#DejaVuSans-36"/>
     </g>
    </g>
   </g>
   <g id="text_7">
    <g clip-path="url(#p83de77055c)">
     <!-- 7 -->
     <g transform="translate(166.073521 312.386805) scale(0.17 -0.17)">
      <defs>
       <path id="DejaVuSans-37" d="M 525 4666 
L 3525 4666 
L 3525 4397 
L 1831 0 
L 1172 0 
L 2766 4134 
L 525 4134 
L 525 4666 
z
" transform="scale(0.015625)"/>
      </defs>
      <use xlink:href="#DejaVuSans-37"/>
     </g>
    </g>
   </g>
   <g id="text_8">
    <g clip-path="url(#p83de77055c)">
     <!-- 8 -->
     <g transform="translate(256.507242 312.386805) scale(0.17 -0.17)">
      <defs>
       <path id="DejaVuSans-38" d="M 2034 2216 
Q 1584 2216 1326 1975 
Q 1069 1734 1069 1313 
Q 1069 891 1326 650 
Q 1584 409 2034 409 
Q 2484 409 2743 651 
Q 3003 894 3003 1313 
Q 3003 1734 2745 1975 
Q 2488 2216 2034 2216 
z
M 1403 2484 
Q 997 2584 770 2862 
Q 544 3141 544 3541 
Q 544 4100 942 4425 
Q 1341 4750 2034 4750 
Q 2731 4750 3128 4425 
Q 3525 4100 3525 3541 
Q 3525 3141 3298 2862 
Q 3072 2584 2669 2484 
Q 3125 2378 3379 2068 
Q 3634 1759 3634 1313 
Q 3634 634 3220 271 
Q 2806 -91 2034 -91 
Q 1263 -91 848 271 
Q 434 634 434 1313 
Q 434 1759 690 2068 
Q 947 2378 1403 2484 
z
M 1172 3481 
Q 1172 3119 1398 2916 
Q 1625 2713 2034 2713 
Q 2441 2713 2670 2916 
Q 2900 3119 2900 3481 
Q 2900 3844 2670 4047 
Q 2441 4250 2034 4250 
Q 1625 4250 1398 4047 
Q 1172 3844 1172 3481 
z
" transform="scale(0.015625)"/>
      </defs>
      <use xlink:href="#DejaVuSans-38"/>
     </g>
    </g>
   </g>
   <g id="text_9">
    <g clip-path="url(#p83de77055c)">
     <!-- 9 -->
     <g transform="translate(346.940962 312.386805) scale(0.17 -0.17)">
      <defs>
       <path id="DejaVuSans-39" d="M 703 97 
L 703 672 
Q 941 559 1184 500 
Q 1428 441 1663 441 
Q 2288 441 2617 861 
Q 2947 1281 2994 2138 
Q 2813 1869 2534 1725 
Q 2256 1581 1919 1581 
Q 1219 1581 811 2004 
Q 403 2428 403 3163 
Q 403 3881 828 4315 
Q 1253 4750 1959 4750 
Q 2769 4750 3195 4129 
Q 3622 3509 3622 2328 
Q 3622 1225 3098 567 
Q 2575 -91 1691 -91 
Q 1453 -91 1209 -44 
Q 966 3 703 97 
z
M 1959 2075 
Q 2384 2075 2632 2365 
Q 2881 2656 2881 3163 
Q 2881 3666 2632 3958 
Q 2384 4250 1959 4250 
Q 1534 4250 1286 3958 
Q 1038 3666 1038 3163 
Q 1038 2656 1286 2365 
Q 1534 2075 1959 2075 
z
" transform="scale(0.015625)"/>
      </defs>
      <use xlink:href="#DejaVuSans-39"/>
     </g>
    </g>
   </g>
   <g id="text_10">
    <g clip-path="url(#p83de77055c)">
     <!-- 10 -->
     <g transform="translate(455.831012 193.378541) scale(0.17 -0.17)">
      <defs>
       <path id="DejaVuSans-30" d="M 2034 4250 
Q 1547 4250 1301 3770 
Q 1056 3291 1056 2328 
Q 1056 1369 1301 889 
Q 1547 409 2034 409 
Q 2525 409 2770 889 
Q 3016 1369 3016 2328 
Q 3016 3291 2770 3770 
Q 2525 4250 2034 4250 
z
M 2034 4750 
Q 2819 4750 3233 4129 
Q 3647 3509 3647 2328 
Q 3647 1150 3233 529 
Q 2819 -91 2034 -91 
Q 1250 -91 836 529 
Q 422 1150 422 2328 
Q 422 3509 836 4129 
Q 1250 4750 2034 4750 
z
" transform="scale(0.015625)"/>
      </defs>
      <use xlink:href="#DejaVuSans-31"/>
      <use xlink:href="#DejaVuSans-30" x="63.623047"/>
     </g>
    </g>
   </g>
   <g id="text_11">
    <g clip-path="url(#p83de77055c)">
     <!-- 11 -->
     <g transform="translate(516.120159 312.386805) scale(0.17 -0.17)">
      <use xlink:href="#DejaVuSans-31"/>
      <use xlink:href="#DejaVuSans-31" x="63.623047"/>
     </g>
    </g>
   </g>
   <g id="text_12">
    <g clip-path="url(#p83de77055c)">
     <!-- 12 -->
     <g transform="translate(160.665396 431.39507) scale(0.17 -0.17)">
      <use xlink:href="#DejaVuSans-31"/>
      <use xlink:href="#DejaVuSans-32" x="63.623047"/>
     </g>
    </g>
   </g>
   <g id="text_13">
    <g clip-path="url(#p83de77055c)">
     <!-- 13 -->
     <g transform="translate(251.099117 431.39507) scale(0.17 -0.17)">
      <use xlink:href="#DejaVuSans-31"/>
      <use xlink:href="#DejaVuSans-33" x="63.623047"/>
     </g>
    </g>
   </g>
   <g id="text_14">
    <g clip-path="url(#p83de77055c)">
     <!-- 14 -->
     <g transform="translate(341.532837 431.39507) scale(0.17 -0.17)">
      <use xlink:href="#DejaVuSans-31"/>
      <use xlink:href="#DejaVuSans-34" x="63.623047"/>
     </g>
    </g>
   </g>
   <g id="text_15">
    <g clip-path="url(#p83de77055c)">
     <!-- 15 -->
     <g transform="translate(431.966558 431.39507) scale(0.17 -0.17)">
      <use xlink:href="#DejaVuSans-31"/>
      <use xlink:href="#DejaVuSans-35" x="63.623047"/>
     </g>
    </g>
   </g>
   <g id="text_16">
    <g clip-path="url(#p83de77055c)">
     <!-- 16 -->
     <g transform="translate(522.400279 431.39507) scale(0.17 -0.17)">
      <use xlink:href="#DejaVuSans-31"/>
      <use xlink:href="#DejaVuSans-36" x="63.623047"/>
     </g>
    </g>
   </g>
   <g id="text_17">
    <g clip-path="url(#p83de77055c)">
     <!-- 17 -->
     <g transform="translate(251.099117 550.403334) scale(0.17 -0.17)">
      <use xlink:href="#DejaVuSans-31"/>
      <use xlink:href="#DejaVuSans-37" x="63.623047"/>
     </g>
    </g>
   </g>
   <g id="text_18">
    <g clip-path="url(#p83de77055c)">
     <!-- 18 -->
     <g transform="translate(341.532837 550.403334) scale(0.17 -0.17)">
      <use xlink:href="#DejaVuSans-31"/>
      <use xlink:href="#DejaVuSans-38" x="63.623047"/>
     </g>
    </g>
   </g>
   <g id="text_19">
    <g clip-path="url(#p83de77055c)">
     <!-- 19 -->
     <g transform="translate(431.966558 550.403334) scale(0.17 -0.17)">
      <use xlink:href="#DejaVuSans-31"/>
      <use xlink:href="#DejaVuSans-39" x="63.623047"/>
     </g>
    </g>
   </g>
   <g id="text_20">
    <g clip-path="url(#p83de77055c)">
     <!-- 20 -->
     <g transform="translate(341.532837 669.411599) scale(0.17 -0.17)">
      <use xlink:href="#DejaVuSans-32"/>
      <use xlink:href="#DejaVuSans-30" x="63.623047"/>
     </g>
    </g>
   </g>
  </g>
 </g>
 <defs>
  <clipPath id="p83de77055c">
   <rect x="7.2" y="7.2" width="576" height="720"/>
  </clipPath>
 </defs>
</svg>
